<?xml version="1.0" encoding="UTF-8"?> <svg xmlns="http://www.w3.org/2000/svg" id="Layer_1" data-name="Layer 1" viewBox="0 0 694 330"><defs><style>.cls-1{fill:#118e40;}</style></defs><title>daicad</title><path class="cls-1" d="M537.16,98c-3.41-1.19,0-5.38,0-5.38,28.25-30.49,43.93-34.07,43.93-34.07a166.2,166.2,0,0,0,43.5-13c21.08-17.48,11.77-19.14,11.77-19.14-11.45,7.93-20.84,13.21-55.17,22.9s-67.5,40.78-71.61,47.23-7.17,4.16-7.17,4.16C499.05,99.37,491,92,484.25,74.49s-25.56-25.57-41-30.94S382,11.93,382,11.93,401.53,50.27,450,69.78c0,0,4.71,1.34,4.71,8.75s8.73,26.22,13.45,30.93,12.77,15.47-10.76,24.88c0,0-14.8,6-6.07,7.41,0,0,73.35,5.36,84.64-23.09,0,0,6.33-1.81,8.58,5.41,0,0,13.75-18.68-7.34-26"></path><rect class="cls-1" x="12.3" y="139.19" width="440.05" height="4.32"></rect><path class="cls-1" d="M20.14,254.44V167.2a5.21,5.21,0,0,0-1.06-3.55,7.75,7.75,0,0,0-3.78-2v-2.41H72.82q18.9,0,29,4.3a41.41,41.41,0,0,1,21.47,20.7q5.5,11.32,5.51,26.51,0,26.67-16.4,40.64a40.94,40.94,0,0,1-16.1,8.42q-9.22,2.54-23.51,2.53H15.3V260a7.75,7.75,0,0,0,3.78-2A5.21,5.21,0,0,0,20.14,254.44Zm22.51-9.06H70.93q13.54,0,20.35-3.7,14.6-7.94,14.59-30.9,0-16.62-7.86-25.45a24.31,24.31,0,0,0-10.59-7q-6.21-2.09-16.49-2.08H42.65Z"></path><path class="cls-1" d="M213.57,236.09H166.7l-6.94,14.5a12.18,12.18,0,0,0-1.43,4.76q0,3.32,5,4.61v2.41h-34.1V260a9.14,9.14,0,0,0,4.6-2.12,20.72,20.72,0,0,0,3.63-5.89l37.92-79.24a15,15,0,0,0,1.81-6q0-3.48-4.38-5v-2.41h36.56v2.41c-3,.86-4.46,2.34-4.46,4.46a11.17,11.17,0,0,0,1.44,5l39.28,79.46a26.83,26.83,0,0,0,4.38,6.91,9.58,9.58,0,0,0,5.06,2.46v2.41h-38V260q5-.84,5-4.69a12,12,0,0,0-1.51-4.68ZM207.09,222l-16.72-36.73-17,36.73Z"></path><path class="cls-1" d="M268.72,254.44V167.12a5.12,5.12,0,0,0-1.06-3.47,7.8,7.8,0,0,0-3.78-2v-2.41h32.18v2.41a7.25,7.25,0,0,0-3.78,1.93,5.29,5.29,0,0,0-1.06,3.51v87.32a5.28,5.28,0,0,0,1.1,3.59,7.4,7.4,0,0,0,3.74,1.93v2.41H263.88V260a7.8,7.8,0,0,0,3.78-2A5.26,5.26,0,0,0,268.72,254.44Z"></path><path class="cls-1" d="M414.5,227l14.35,21.49-2,1.36c-1.41-1.31-2.57-2-3.48-2s-3.45,1.21-7.63,3.63q-13,7.5-21.86,10.11a75.39,75.39,0,0,1-21.12,2.62q-24.39,0-40-11.56a48.53,48.53,0,0,1-14.5-16.69,52.38,52.38,0,0,1-6.12-25.16q0-18.74,11-32.55,16.47-20.78,49.78-20.78a75.35,75.35,0,0,1,21,2.57q8.76,2.56,21.9,10.12c4.18,2.37,6.73,3.55,7.63,3.55s2.07-.65,3.48-2l2,1.36L414.5,194.62l-2-1.36a16.85,16.85,0,0,0,.15-2,5.8,5.8,0,0,0-1.89-4.1A32,32,0,0,0,404,182.5,57,57,0,0,0,375.67,175q-17.67,0-28.17,8.83-12.39,10.33-12.39,27t12.39,27q10.5,8.83,28.17,8.83A56.78,56.78,0,0,0,404,239.11a31.89,31.89,0,0,0,6.72-4.65,5.8,5.8,0,0,0,1.89-4.11,15.31,15.31,0,0,0-.15-2Z"></path><path class="cls-1" d="M517.85,236.09H471l-6.94,14.5a12,12,0,0,0-1.43,4.76q0,3.32,5.05,4.61v2.41H433.56V260a9.17,9.17,0,0,0,4.61-2.12A20.72,20.72,0,0,0,441.8,252l37.92-79.24a15.21,15.21,0,0,0,1.81-6q0-3.48-4.38-5v-2.41h36.56v2.41c-3,.86-4.46,2.34-4.46,4.46a11.17,11.17,0,0,0,1.44,5L550,250.59a27.39,27.39,0,0,0,4.38,6.91,9.62,9.62,0,0,0,5.07,2.46v2.41h-38V260q5-.84,5-4.69a12,12,0,0,0-1.51-4.68ZM511.38,222l-16.72-36.73-17,36.73Z"></path><path class="cls-1" d="M573,254.44V167.2a5.26,5.26,0,0,0-1-3.55,7.8,7.8,0,0,0-3.78-2v-2.41h57.52q18.9,0,29,4.3a41.36,41.36,0,0,1,21.46,20.7q5.52,11.32,5.52,26.51,0,26.67-16.4,40.64a41.07,41.07,0,0,1-16.1,8.42q-9.23,2.54-23.51,2.53H568.17V260a7.8,7.8,0,0,0,3.78-2A5.26,5.26,0,0,0,573,254.44Zm22.51-9.06H623.8q13.53,0,20.34-3.7,14.6-7.94,14.6-30.9,0-16.62-7.87-25.45a24.19,24.19,0,0,0-10.59-7q-6.19-2.09-16.48-2.08H595.51Z"></path><path class="cls-1" d="M35,108.47v13.69a2,2,0,0,0,.4,1.32,2.7,2.7,0,0,0,1.38.71v.89H24.94v-.89a3,3,0,0,0,1.39-.72,2,2,0,0,0,.39-1.31V90a1.92,1.92,0,0,0-.39-1.31A2.89,2.89,0,0,0,24.94,88v-.89H58.55a1.87,1.87,0,0,0,1.28-.38,2.84,2.84,0,0,0,.73-1.4h.89v9.83h-.89a2.79,2.79,0,0,0-.73-1.4,1.87,1.87,0,0,0-1.28-.39H35v9.08H50.4a2,2,0,0,0,1.31-.4,3,3,0,0,0,.72-1.38h.89v9.6h-.89a2.94,2.94,0,0,0-.72-1.39,2,2,0,0,0-1.31-.39Z"></path><path class="cls-1" d="M105.06,90V111.3c0,4-.75,7-2.23,9q-4,5.4-16.56,5.4-9.08,0-13.89-2.92a9,9,0,0,1-3.89-4.62,20,20,0,0,1-1.06-6.91V90A1.92,1.92,0,0,0,67,88.71,2.85,2.85,0,0,0,65.65,88v-.89H77.51V88a2.77,2.77,0,0,0-1.39.71,2,2,0,0,0-.4,1.33v19a22.78,22.78,0,0,0,.37,4.85,5.48,5.48,0,0,0,1.36,2.63q2.67,2.83,9.13,2.84t9.15-2.84a5.63,5.63,0,0,0,1.34-2.63,23.63,23.63,0,0,0,.36-4.85V90A1.92,1.92,0,0,0,97,88.71,2.85,2.85,0,0,0,95.65,88v-.89h11.19V88a2.85,2.85,0,0,0-1.39.73A1.92,1.92,0,0,0,105.06,90Z"></path><path class="cls-1" d="M122.28,99.06v23.1a2,2,0,0,0,.39,1.31,3,3,0,0,0,1.39.72v.89H112.9v-.89a3,3,0,0,0,1.4-.72,2,2,0,0,0,.39-1.31V90a1.87,1.87,0,0,0-.39-1.28,2.89,2.89,0,0,0-1.4-.73v-.89h12.92V88c-.8.21-1.2.63-1.2,1.28a2.27,2.27,0,0,0,.78,1.48l20.95,21.79V90a1.87,1.87,0,0,0-.39-1.28,2.8,2.8,0,0,0-1.39-.73v-.89h11.16V88a2.85,2.85,0,0,0-1.39.73A1.87,1.87,0,0,0,154,90v32.17a2,2,0,0,0,.39,1.31,2.93,2.93,0,0,0,1.39.72v.89h-12v-.89q1.17-.25,1.17-1.2c0-.37-.46-1-1.37-1.95Z"></path><path class="cls-1" d="M164.36,122.16V90a1.92,1.92,0,0,0-.39-1.31,2.85,2.85,0,0,0-1.39-.73v-.89h21.19q7,0,10.69,1.59a15.2,15.2,0,0,1,7.91,7.62,22,22,0,0,1,2,9.77q0,9.83-6,15a15.07,15.07,0,0,1-5.93,3.11,33.52,33.52,0,0,1-8.66.93H162.58v-.89a2.93,2.93,0,0,0,1.39-.72A2,2,0,0,0,164.36,122.16Zm8.29-3.34h10.42q5,0,7.5-1.37,5.37-2.91,5.38-11.38,0-6.12-2.9-9.38a9,9,0,0,0-3.9-2.57,19.69,19.69,0,0,0-6.08-.77H172.65Z"></path><path class="cls-1" d="M235.62,115.4H218.36l-2.56,5.34a4.52,4.52,0,0,0-.53,1.75c0,.82.62,1.38,1.86,1.7v.89H204.57v-.89a3.41,3.41,0,0,0,1.7-.78,7.55,7.55,0,0,0,1.33-2.17l14-29.19a5.5,5.5,0,0,0,.67-2.23c0-.85-.54-1.46-1.61-1.84v-.89H234.1V88q-1.65.48-1.65,1.65a4.13,4.13,0,0,0,.53,1.83l14.47,29.28a9.85,9.85,0,0,0,1.62,2.54,3.48,3.48,0,0,0,1.86.91v.89H237v-.89c1.23-.2,1.84-.78,1.84-1.73a4.47,4.47,0,0,0-.56-1.72Zm-2.38-5.21-6.16-13.53-6.26,13.53Z"></path><path class="cls-1" d="M288.13,112l5.29,7.92-.73.5a2.13,2.13,0,0,0-1.28-.73,10.06,10.06,0,0,0-2.81,1.34,39.65,39.65,0,0,1-8.06,3.73,27.77,27.77,0,0,1-7.77,1q-9,0-14.75-4.26a17.86,17.86,0,0,1-5.35-6.15,19.32,19.32,0,0,1-2.25-9.27,18.67,18.67,0,0,1,4-12q6.06-7.65,18.33-7.65a27.78,27.78,0,0,1,7.74.94,39.75,39.75,0,0,1,8.07,3.73,10.17,10.17,0,0,0,2.81,1.31,2.13,2.13,0,0,0,1.28-.73l.73.51-5.29,7.93-.75-.5c0-.3.05-.55.05-.75a2.13,2.13,0,0,0-.69-1.51,12.06,12.06,0,0,0-2.48-1.71,21,21,0,0,0-10.44-2.77q-6.51,0-10.38,3.25a13.15,13.15,0,0,0,0,19.91q3.87,3.25,10.38,3.25a20.93,20.93,0,0,0,10.44-2.78,12.06,12.06,0,0,0,2.48-1.71,2.17,2.17,0,0,0,.69-1.52,7.07,7.07,0,0,0-.05-.72Z"></path><path class="cls-1" d="M300.9,122.16V90a1.87,1.87,0,0,0-.39-1.28,2.85,2.85,0,0,0-1.39-.73v-.89H311V88a2.73,2.73,0,0,0-1.4.71,2,2,0,0,0-.39,1.3v32.17a2,2,0,0,0,.41,1.32,2.7,2.7,0,0,0,1.38.71v.89H299.12v-.89a2.93,2.93,0,0,0,1.39-.72A2,2,0,0,0,300.9,122.16Z"></path><path class="cls-1" d="M338.68,86.43q9.94,0,15.76,5.37a19.72,19.72,0,0,1,3.2,24.71q-5.76,9.24-18.9,9.24-9.87,0-15.68-5.37a18.78,18.78,0,0,1-4.74-6.88,19.84,19.84,0,0,1-1.42-7.43,19.44,19.44,0,0,1,2.93-10.43Q325.43,86.6,338.68,86.43Zm0,6.45a13.14,13.14,0,0,0-9.06,3.23,13.75,13.75,0,0,0,0,20,14.47,14.47,0,0,0,18.2,0,12.78,12.78,0,0,0,3.28-4.7,13.49,13.49,0,0,0,1-5.12q0-6.45-4.28-10.14A13.66,13.66,0,0,0,338.71,92.88Z"></path><path class="cls-1" d="M375.93,99.06v23.1a2,2,0,0,0,.39,1.31,2.93,2.93,0,0,0,1.39.72v.89H366.55v-.89a2.93,2.93,0,0,0,1.39-.72,2,2,0,0,0,.39-1.31V90a1.87,1.87,0,0,0-.39-1.28,2.85,2.85,0,0,0-1.39-.73v-.89h12.91V88c-.79.21-1.19.63-1.19,1.28a2.27,2.27,0,0,0,.78,1.48L400,112.53V90a1.87,1.87,0,0,0-.39-1.28,2.85,2.85,0,0,0-1.39-.73v-.89h11.16V88a2.85,2.85,0,0,0-1.39.73A1.87,1.87,0,0,0,407.6,90v32.17a2,2,0,0,0,.39,1.31,2.93,2.93,0,0,0,1.39.72v.89h-12v-.89q1.17-.25,1.17-1.2c0-.37-.45-1-1.36-1.95Z"></path><path class="cls-1" d="M30.86,299.94a13.16,13.16,0,0,1-.46,3.5,9.67,9.67,0,0,1-1.4,2.95,9.28,9.28,0,0,1-2.32,2.27,11.14,11.14,0,0,1-3.25,1.47,12.31,12.31,0,0,1-2.31.43c-.82.07-1.72.11-2.68.11H13.62V289.4h4.86c1,0,1.86,0,2.69.12a13.18,13.18,0,0,1,2.31.42,11.39,11.39,0,0,1,3.25,1.46,8.82,8.82,0,0,1,3.67,5.1A12.23,12.23,0,0,1,30.86,299.94Zm-2.58,0a8.45,8.45,0,0,0-1.35-5,7.29,7.29,0,0,0-3.89-2.7,10.23,10.23,0,0,0-2.16-.41c-.79-.08-1.69-.11-2.69-.11h-2v16.6h2c1,0,1.9,0,2.69-.11a10.89,10.89,0,0,0,2.16-.42A7.15,7.15,0,0,0,26.93,305,8.88,8.88,0,0,0,28.28,299.94Z"></path><path class="cls-1" d="M42.32,308.93a11.88,11.88,0,0,0,2.24-.2,13.77,13.77,0,0,0,2-.57v2a7.68,7.68,0,0,1-2,.63,13.69,13.69,0,0,1-2.56.23,11.06,11.06,0,0,1-3-.41,6.37,6.37,0,0,1-2.47-1.34,6.23,6.23,0,0,1-1.63-2.41,9.76,9.76,0,0,1-.59-3.58,10.2,10.2,0,0,1,.58-3.59,7.5,7.5,0,0,1,1.52-2.54,6.22,6.22,0,0,1,2.19-1.52,6.86,6.86,0,0,1,5-.09,4.93,4.93,0,0,1,1.91,1.33,6.37,6.37,0,0,1,1.27,2.34,10.85,10.85,0,0,1,.47,3.43V303c0,.09,0,.29,0,.61H36.72a6.25,6.25,0,0,0,.44,2.46,4.26,4.26,0,0,0,1.19,1.63,4.79,4.79,0,0,0,1.78.92A8.11,8.11,0,0,0,42.32,308.93ZM41,297.28a3.76,3.76,0,0,0-1.58.34,3.88,3.88,0,0,0-1.28.91,4.61,4.61,0,0,0-.89,1.34,5,5,0,0,0-.42,1.64h7.73a5.94,5.94,0,0,0-.23-1.66,4.15,4.15,0,0,0-.69-1.34,3.24,3.24,0,0,0-1.11-.9A3.38,3.38,0,0,0,41,297.28Z"></path><path class="cls-1" d="M50.48,303.31a11.17,11.17,0,0,1,.31-2.79,8.76,8.76,0,0,1,.82-2.12,6,6,0,0,1,1.19-1.52,6.75,6.75,0,0,1,1.42-1,5.66,5.66,0,0,1,1.48-.55,6.78,6.78,0,0,1,1.43-.17,5.74,5.74,0,0,1,2.4.46A5.65,5.65,0,0,1,61.36,297h0v-9.33h2.47v23H62L61.5,309h-.06a8.79,8.79,0,0,1-.67.74,4.79,4.79,0,0,1-.9.67,4.43,4.43,0,0,1-1.19.49,6.16,6.16,0,0,1-1.57.18,7.22,7.22,0,0,1-2.43-.42,5.6,5.6,0,0,1-2.13-1.35,6.83,6.83,0,0,1-1.5-2.4A10,10,0,0,1,50.48,303.31Zm2.58,0a8.62,8.62,0,0,0,.29,2.36,5.37,5.37,0,0,0,.85,1.8,3.86,3.86,0,0,0,1.37,1.14,4.24,4.24,0,0,0,1.86.39,4.75,4.75,0,0,0,1.41-.2,5,5,0,0,0,1.14-.53,5.58,5.58,0,0,0,.86-.67,4.28,4.28,0,0,0,.56-.66V299a6,6,0,0,0-1.76-1.25,5.08,5.08,0,0,0-2.16-.47,4.41,4.41,0,0,0-1.47.27,3.59,3.59,0,0,0-1.44.94,5.34,5.34,0,0,0-1.09,1.84A8.74,8.74,0,0,0,53.06,303.28Z"></path><path class="cls-1" d="M68.89,292.05V289.3h2.47v2.75ZM69,310.67v-15.1h2.46v15.1Z"></path><path class="cls-1" d="M82.84,295.17a9.59,9.59,0,0,1,2.1.23,6.3,6.3,0,0,1,1.72.64v2.06a13.72,13.72,0,0,0-1.85-.58,8.15,8.15,0,0,0-1.71-.19,5.75,5.75,0,0,0-1.83.3,4.39,4.39,0,0,0-1.63,1,5,5,0,0,0-1.15,1.83,8,8,0,0,0-.44,2.82,7.39,7.39,0,0,0,.33,2.26,5.16,5.16,0,0,0,1,1.79A4.44,4.44,0,0,0,81,308.5a5.64,5.64,0,0,0,2.25.43,9.2,9.2,0,0,0,1.86-.2,11.06,11.06,0,0,0,1.83-.57v2a3.7,3.7,0,0,1-.71.32,7.31,7.31,0,0,1-1,.28c-.35.08-.73.14-1.12.19a9.18,9.18,0,0,1-1.17.07,8.88,8.88,0,0,1-2.89-.46,6.57,6.57,0,0,1-2.38-1.41,6.69,6.69,0,0,1-1.6-2.42,9.13,9.13,0,0,1-.59-3.47,10.63,10.63,0,0,1,.31-2.69,7.75,7.75,0,0,1,.85-2.09A6.47,6.47,0,0,1,77.9,297a7.38,7.38,0,0,1,1.55-1,6.93,6.93,0,0,1,1.69-.59A8.4,8.4,0,0,1,82.84,295.17Z"></path><path class="cls-1" d="M99.47,309h-.06a4.54,4.54,0,0,1-.76.76,5.91,5.91,0,0,1-1.07.67,7.07,7.07,0,0,1-1.32.47,6.68,6.68,0,0,1-1.52.17,6.16,6.16,0,0,1-2-.32,4.32,4.32,0,0,1-2.6-2.49,5.55,5.55,0,0,1-.36-2.05,4.79,4.79,0,0,1,.4-2,4.17,4.17,0,0,1,1.14-1.51,5,5,0,0,1,1.76-1,7.34,7.34,0,0,1,2.26-.33,13.26,13.26,0,0,1,2.18.2,11.67,11.67,0,0,1,1.78.48h.07V301a7.18,7.18,0,0,0-.08-1.1,3.45,3.45,0,0,0-.27-.84,3.22,3.22,0,0,0-1.32-1.26,5,5,0,0,0-2.45-.5,10.7,10.7,0,0,0-2.16.21,12.78,12.78,0,0,0-2,.6v-2.07a6.48,6.48,0,0,1,.9-.36c.35-.11.71-.2,1.09-.28s.78-.14,1.21-.19.85-.06,1.27-.06a7.66,7.66,0,0,1,3.75.81,4.86,4.86,0,0,1,2.09,2.15,4.31,4.31,0,0,1,.34,1.12,8,8,0,0,1,.1,1.34v10.08H99.75Zm-.12-5c-.46-.12-1-.25-1.62-.36a11.74,11.74,0,0,0-2.06-.19,4,4,0,0,0-2.45.67,2.39,2.39,0,0,0-.89,2,3.09,3.09,0,0,0,.23,1.22,2.28,2.28,0,0,0,.61.87,2.39,2.39,0,0,0,.91.51,3.83,3.83,0,0,0,1.14.16,4.44,4.44,0,0,0,1.47-.23,5.62,5.62,0,0,0,1.21-.55,7,7,0,0,0,.9-.63c.25-.21.43-.38.55-.49Z"></path><path class="cls-1" d="M105.71,303.31a11.17,11.17,0,0,1,.31-2.79,8.76,8.76,0,0,1,.82-2.12,5.74,5.74,0,0,1,1.19-1.52,6.75,6.75,0,0,1,1.42-1,5.66,5.66,0,0,1,1.48-.55,6.78,6.78,0,0,1,1.43-.17,5.33,5.33,0,0,1,4.23,1.81h0v-9.33h2.47v23h-1.86l-.51-1.68h-.06c-.2.24-.42.49-.67.74a4.79,4.79,0,0,1-.9.67,4.57,4.57,0,0,1-1.19.49,6.16,6.16,0,0,1-1.57.18,7.22,7.22,0,0,1-2.43-.42,5.6,5.6,0,0,1-2.13-1.35,6.83,6.83,0,0,1-1.5-2.4A10,10,0,0,1,105.71,303.31Zm2.57,0a8.61,8.61,0,0,0,.3,2.36,5.18,5.18,0,0,0,.85,1.8,3.86,3.86,0,0,0,1.37,1.14,4.24,4.24,0,0,0,1.86.39,4.75,4.75,0,0,0,1.41-.2,5,5,0,0,0,1.14-.53,5.58,5.58,0,0,0,.86-.67,4.28,4.28,0,0,0,.56-.66V299a6.12,6.12,0,0,0-1.76-1.25,5.08,5.08,0,0,0-2.16-.47,4.51,4.51,0,0,0-1.48.27,3.63,3.63,0,0,0-1.43.94,5.34,5.34,0,0,0-1.09,1.84A8.72,8.72,0,0,0,108.28,303.28Z"></path><path class="cls-1" d="M132.87,309h-.06a5,5,0,0,1-.77.76,5.81,5.81,0,0,1-1.06.67,7.62,7.62,0,0,1-1.32.47,6.83,6.83,0,0,1-1.53.17,6.14,6.14,0,0,1-2-.32,4.44,4.44,0,0,1-1.58-1,4.28,4.28,0,0,1-1-1.53,5.35,5.35,0,0,1-.37-2.05,4.79,4.79,0,0,1,.41-2,4.17,4.17,0,0,1,1.14-1.51,4.94,4.94,0,0,1,1.75-1,7.41,7.41,0,0,1,2.27-.33,13.36,13.36,0,0,1,2.18.2,11.67,11.67,0,0,1,1.78.48h.06V301a6.1,6.1,0,0,0-.08-1.1,2.76,2.76,0,0,0-.27-.84,3.1,3.1,0,0,0-1.32-1.26,5,5,0,0,0-2.45-.5,10.52,10.52,0,0,0-2.15.21,12.47,12.47,0,0,0-2,.6v-2.07a5.61,5.61,0,0,1,.9-.36,10.17,10.17,0,0,1,1.09-.28c.38-.08.78-.14,1.2-.19s.85-.06,1.28-.06a7.65,7.65,0,0,1,3.74.81,4.81,4.81,0,0,1,2.09,2.15,4.31,4.31,0,0,1,.34,1.12,8,8,0,0,1,.11,1.34v10.08h-2.07Zm-.13-5c-.45-.12-1-.25-1.61-.36a11.84,11.84,0,0,0-2.06-.19,3.94,3.94,0,0,0-2.45.67,2.36,2.36,0,0,0-.89,2,3.09,3.09,0,0,0,.22,1.22,2.4,2.4,0,0,0,.61.87,2.43,2.43,0,0,0,.92.51,3.77,3.77,0,0,0,1.13.16,4.36,4.36,0,0,0,1.47-.23,5.4,5.4,0,0,0,1.21-.55,6.51,6.51,0,0,0,.91-.63c.24-.21.43-.38.54-.49Z"></path><path class="cls-1" d="M155.34,309h-.06a5,5,0,0,1-.77.76,5.81,5.81,0,0,1-1.06.67,7.62,7.62,0,0,1-1.32.47,6.83,6.83,0,0,1-1.53.17,6.14,6.14,0,0,1-2-.32,4.44,4.44,0,0,1-1.58-1,4.28,4.28,0,0,1-1-1.53,5.35,5.35,0,0,1-.37-2.05,4.79,4.79,0,0,1,.41-2,4.17,4.17,0,0,1,1.14-1.51,4.94,4.94,0,0,1,1.75-1,7.41,7.41,0,0,1,2.27-.33,13.36,13.36,0,0,1,2.18.2,11.67,11.67,0,0,1,1.78.48h.06V301a6.1,6.1,0,0,0-.08-1.1,2.76,2.76,0,0,0-.27-.84,3.1,3.1,0,0,0-1.32-1.26,5,5,0,0,0-2.45-.5,10.52,10.52,0,0,0-2.15.21,12.47,12.47,0,0,0-2,.6v-2.07a5.61,5.61,0,0,1,.9-.36,10.17,10.17,0,0,1,1.09-.28c.38-.08.78-.14,1.2-.19s.85-.06,1.28-.06a7.65,7.65,0,0,1,3.74.81,4.81,4.81,0,0,1,2.09,2.15,4.31,4.31,0,0,1,.34,1.12,8,8,0,0,1,.11,1.34v10.08h-2.07Zm-.13-5c-.45-.12-1-.25-1.61-.36a11.84,11.84,0,0,0-2.06-.19,3.94,3.94,0,0,0-2.45.67,2.36,2.36,0,0,0-.89,2,3.09,3.09,0,0,0,.22,1.22,2.4,2.4,0,0,0,.61.87,2.43,2.43,0,0,0,.92.51,3.77,3.77,0,0,0,1.13.16,4.36,4.36,0,0,0,1.47-.23,5.4,5.4,0,0,0,1.21-.55,6.51,6.51,0,0,0,.91-.63c.24-.21.43-.38.54-.49Z"></path><path class="cls-1" d="M169.29,310.67V289.4h2.59v21.27Z"></path><path class="cls-1" d="M179.35,297.67h.05a8.45,8.45,0,0,1,.91-1,5.87,5.87,0,0,1,2.48-1.33,6.8,6.8,0,0,1,3.56.1,3.89,3.89,0,0,1,1.57.92A4.36,4.36,0,0,1,189,298a7.1,7.1,0,0,1,.39,2.52v10.11h-2.46V301a4.27,4.27,0,0,0-.76-2.82,2.78,2.78,0,0,0-2.2-.86,4.81,4.81,0,0,0-2.47.71,6.54,6.54,0,0,0-2,1.95v10.73H177v-15.1h1.9Z"></path><path class="cls-1" d="M193.27,303.31a11.17,11.17,0,0,1,.31-2.79,8.37,8.37,0,0,1,.82-2.12,5.54,5.54,0,0,1,1.19-1.52,6.7,6.7,0,0,1,1.41-1,5.86,5.86,0,0,1,1.49-.55,6.69,6.69,0,0,1,1.42-.17,5.33,5.33,0,0,1,4.23,1.81h.05v-9.33h2.47v23H204.8l-.51-1.68h-.07a8.59,8.59,0,0,1-.66.74,4.79,4.79,0,0,1-.9.67,4.64,4.64,0,0,1-1.2.49,6.08,6.08,0,0,1-1.56.18,7.32,7.32,0,0,1-2.44-.42,5.64,5.64,0,0,1-2.12-1.35,6.83,6.83,0,0,1-1.5-2.4A10,10,0,0,1,193.27,303.31Zm2.57,0a8.61,8.61,0,0,0,.3,2.36,5.18,5.18,0,0,0,.85,1.8,3.78,3.78,0,0,0,1.37,1.14,4.24,4.24,0,0,0,1.86.39,4.75,4.75,0,0,0,1.41-.2,5.21,5.21,0,0,0,1.14-.53,5.58,5.58,0,0,0,.86-.67,4.93,4.93,0,0,0,.56-.66V299a6.26,6.26,0,0,0-1.76-1.25,5.1,5.1,0,0,0-2.17-.47,4.5,4.5,0,0,0-1.47.27,3.63,3.63,0,0,0-1.43.94,5.34,5.34,0,0,0-1.09,1.84A8.72,8.72,0,0,0,195.84,303.28Z"></path><path class="cls-1" d="M211.68,292.05V289.3h2.47v2.75Zm.07,18.62v-15.1h2.46v15.1Z"></path><path class="cls-1" d="M224.24,308.18c.36-1.11.85-2.51,1.48-4.22l3-8.39h2.47l-5.71,15.1h-2.56l-5.71-15.1h2.47l3,8.39c.6,1.66,1.09,3.06,1.47,4.22Z"></path><path class="cls-1" d="M234.28,292.05V289.3h2.46v2.75Zm.06,18.62v-15.1h2.47v15.1Z"></path><path class="cls-1" d="M240.86,303.31a11.66,11.66,0,0,1,.31-2.79,8.76,8.76,0,0,1,.82-2.12,6,6,0,0,1,1.19-1.52,6.75,6.75,0,0,1,1.42-1,5.72,5.72,0,0,1,1.49-.55,6.61,6.61,0,0,1,1.42-.17,5.74,5.74,0,0,1,2.4.46,5.65,5.65,0,0,1,1.83,1.35h0v-9.33h2.46v23h-1.86l-.51-1.68h-.06a7.35,7.35,0,0,1-.67.74,4.22,4.22,0,0,1-.9.67,4.43,4.43,0,0,1-1.19.49,6.11,6.11,0,0,1-1.57.18,7.31,7.31,0,0,1-2.43-.42,5.64,5.64,0,0,1-2.12-1.35,7,7,0,0,1-1.51-2.4A10,10,0,0,1,240.86,303.31Zm2.58,0a9,9,0,0,0,.29,2.36,5.37,5.37,0,0,0,.85,1.8,3.86,3.86,0,0,0,1.37,1.14,4.24,4.24,0,0,0,1.86.39,4.87,4.87,0,0,0,1.42-.2,5.09,5.09,0,0,0,2.56-1.86V299a6.17,6.17,0,0,0-1.77-1.25,5.08,5.08,0,0,0-2.16-.47,4.41,4.41,0,0,0-1.47.27,3.56,3.56,0,0,0-1.43.94,5.19,5.19,0,0,0-1.09,1.84A8.48,8.48,0,0,0,243.44,303.28Z"></path><path class="cls-1" d="M265.18,311.07a8.11,8.11,0,0,1-2.12-.25,5.7,5.7,0,0,1-1.64-.72,4.53,4.53,0,0,1-1.2-1.1,5.4,5.4,0,0,1-.78-1.41,5.28,5.28,0,0,1-.32-1.26,9.79,9.79,0,0,1-.1-1.49v-9.27h2.47v9.25a5.78,5.78,0,0,0,.33,2.1,3.14,3.14,0,0,0,1.23,1.5,3.91,3.91,0,0,0,2.17.55,3.8,3.8,0,0,0,2.25-.6,3.25,3.25,0,0,0,1.22-1.62,5.94,5.94,0,0,0,.27-1.93v-9.25h2.47v9.28a10.65,10.65,0,0,1-.09,1.43,6.13,6.13,0,0,1-.28,1.21,5.32,5.32,0,0,1-.79,1.44,4.8,4.8,0,0,1-1.23,1.14,6.05,6.05,0,0,1-1.69.74A8.07,8.07,0,0,1,265.18,311.07Z"></path><path class="cls-1" d="M289.51,303.14a9.79,9.79,0,0,1-.51,3.24,7.37,7.37,0,0,1-1.44,2.51,6.4,6.4,0,0,1-2.25,1.61,7.41,7.41,0,0,1-3,.57,7.55,7.55,0,0,1-3-.57,6.35,6.35,0,0,1-2.26-1.61,7,7,0,0,1-1.42-2.51,10.06,10.06,0,0,1-.5-3.24,9.82,9.82,0,0,1,.51-3.26,7.42,7.42,0,0,1,1.44-2.52,6.25,6.25,0,0,1,2.26-1.62,7.42,7.42,0,0,1,3-.57,7.57,7.57,0,0,1,3,.57,6.25,6.25,0,0,1,2.26,1.62,7.2,7.2,0,0,1,1.41,2.52A10.09,10.09,0,0,1,289.51,303.14Zm-2.58,0a8.19,8.19,0,0,0-.34-2.49,5.76,5.76,0,0,0-.95-1.85,4.12,4.12,0,0,0-1.46-1.14,4.56,4.56,0,0,0-3.69,0A4,4,0,0,0,279,298.8a5.59,5.59,0,0,0-1,1.85,9.21,9.21,0,0,0,0,5,5.44,5.44,0,0,0,1,1.84,4.12,4.12,0,0,0,1.47,1.13,4.54,4.54,0,0,0,3.68,0,4.14,4.14,0,0,0,1.45-1.13,5.61,5.61,0,0,0,.95-1.84A8.2,8.2,0,0,0,286.93,303.14Z"></path><path class="cls-1" d="M295.17,299.59a1.88,1.88,0,0,0,.26,1,2.09,2.09,0,0,0,.71.64,4.61,4.61,0,0,0,1,.41c.39.1.79.2,1.2.28.57.13,1.11.27,1.62.43a4.63,4.63,0,0,1,1.41.69,3.31,3.31,0,0,1,1,1.25,4.58,4.58,0,0,1,.39,2,4.42,4.42,0,0,1-.44,2,4.26,4.26,0,0,1-1.26,1.48,5.89,5.89,0,0,1-1.94.9,9.2,9.2,0,0,1-2.48.31,13.59,13.59,0,0,1-1.5-.08,9.7,9.7,0,0,1-1.19-.23,7.3,7.3,0,0,1-.89-.28,4.37,4.37,0,0,1-.6-.27v-2.06a13.39,13.39,0,0,0,1.86.6,8.54,8.54,0,0,0,2,.22,6.83,6.83,0,0,0,1.57-.16,3.68,3.68,0,0,0,1.21-.47,2.13,2.13,0,0,0,.78-.77,2.08,2.08,0,0,0,.28-1.09,2,2,0,0,0-.25-1.05,2.1,2.1,0,0,0-.67-.69,3.83,3.83,0,0,0-1-.44c-.37-.12-.76-.23-1.16-.32s-1.07-.25-1.62-.41a6.1,6.1,0,0,1-1.49-.67,3.2,3.2,0,0,1-1.08-1.17,3.82,3.82,0,0,1-.42-1.9,4.75,4.75,0,0,1,.43-2.07,4.22,4.22,0,0,1,1.16-1.44,5,5,0,0,1,1.7-.86,7.27,7.27,0,0,1,2.06-.29,10.75,10.75,0,0,1,2.33.24,12,12,0,0,1,1.94.6v2.1a14.58,14.58,0,0,0-1.88-.59,8.56,8.56,0,0,0-2-.25,5.58,5.58,0,0,0-1.46.17,2.83,2.83,0,0,0-1,.49,2,2,0,0,0-.56.73A2.34,2.34,0,0,0,295.17,299.59Z"></path><path class="cls-1" d="M319.58,295.17a9.59,9.59,0,0,1,2.1.23,6.3,6.3,0,0,1,1.72.64v2.06a13.72,13.72,0,0,0-1.85-.58,8.17,8.17,0,0,0-1.72-.19,5.84,5.84,0,0,0-1.83.3,4.43,4.43,0,0,0-1.62,1,5,5,0,0,0-1.15,1.83,8,8,0,0,0-.44,2.82,7.39,7.39,0,0,0,.33,2.26,5.16,5.16,0,0,0,1,1.79,4.44,4.44,0,0,0,1.61,1.17,5.63,5.63,0,0,0,2.24.43,9.22,9.22,0,0,0,1.87-.2,10.66,10.66,0,0,0,1.82-.57v2a3.58,3.58,0,0,1-.7.32,8,8,0,0,1-1,.28c-.35.08-.72.14-1.11.19a9.23,9.23,0,0,1-1.18.07,8.82,8.82,0,0,1-2.88-.46,6.57,6.57,0,0,1-2.38-1.41,6.84,6.84,0,0,1-1.61-2.42,9.34,9.34,0,0,1-.58-3.47,10.63,10.63,0,0,1,.31-2.69,7.75,7.75,0,0,1,.85-2.09,6.47,6.47,0,0,1,1.26-1.55,7.32,7.32,0,0,1,1.54-1,7,7,0,0,1,1.7-.59A8.4,8.4,0,0,1,319.58,295.17Z"></path><path class="cls-1" d="M340.84,303.14a9.79,9.79,0,0,1-.51,3.24,7.37,7.37,0,0,1-1.44,2.51,6.4,6.4,0,0,1-2.25,1.61,7.37,7.37,0,0,1-3,.57,7.58,7.58,0,0,1-3-.57,6.44,6.44,0,0,1-2.26-1.61,7.17,7.17,0,0,1-1.42-2.51,10.06,10.06,0,0,1-.49-3.24,9.82,9.82,0,0,1,.51-3.26,7.24,7.24,0,0,1,1.43-2.52,6.34,6.34,0,0,1,2.26-1.62,7.49,7.49,0,0,1,3-.57,7.57,7.57,0,0,1,3,.57,6.17,6.17,0,0,1,2.26,1.62,7.22,7.22,0,0,1,1.42,2.52A10.1,10.1,0,0,1,340.84,303.14Zm-2.58,0a8.19,8.19,0,0,0-.34-2.49,5.57,5.57,0,0,0-.95-1.85,4,4,0,0,0-1.46-1.14,4.3,4.3,0,0,0-1.84-.39,4.38,4.38,0,0,0-1.85.39,4.08,4.08,0,0,0-1.45,1.14,5.59,5.59,0,0,0-1,1.85,9.21,9.21,0,0,0,0,5,5.28,5.28,0,0,0,1,1.84,4.09,4.09,0,0,0,1.46,1.13,4.54,4.54,0,0,0,3.68,0,4.05,4.05,0,0,0,1.45-1.13,5.42,5.42,0,0,0,.95-1.84A8.2,8.2,0,0,0,338.26,303.14Z"></path><path class="cls-1" d="M347.12,297.67h.05a7.66,7.66,0,0,1,.91-1,5.87,5.87,0,0,1,2.48-1.33,6.8,6.8,0,0,1,3.56.1,3.89,3.89,0,0,1,1.57.92,4.36,4.36,0,0,1,1.06,1.66,7.1,7.1,0,0,1,.39,2.52v10.11h-2.46V301a4.27,4.27,0,0,0-.76-2.82,2.78,2.78,0,0,0-2.2-.86,4.81,4.81,0,0,0-2.47.71,6.54,6.54,0,0,0-2.05,1.95v10.73h-2.46v-15.1h1.9Z"></path><path class="cls-1" d="M377.76,291.31a9.64,9.64,0,0,0-3.34.56,7.49,7.49,0,0,0-2.7,1.69,7.86,7.86,0,0,0-1.8,2.78,10.46,10.46,0,0,0-.66,3.87,10.72,10.72,0,0,0,.61,3.81,7,7,0,0,0,1.74,2.67,7,7,0,0,0,2.71,1.57,11.55,11.55,0,0,0,3.54.51,11.09,11.09,0,0,0,1.12-.06c.4,0,.8-.09,1.2-.16s.8-.15,1.18-.24.72-.19,1-.29v2.29a10.8,10.8,0,0,1-2.18.56,15.19,15.19,0,0,1-2.54.2,13.7,13.7,0,0,1-4.71-.74,9.14,9.14,0,0,1-3.44-2.12,9,9,0,0,1-2.11-3.38,14.33,14.33,0,0,1,0-9.09,9.79,9.79,0,0,1,5.63-5.91,12,12,0,0,1,4.55-.83q.67,0,1.32.06c.44,0,.85.09,1.25.15a10.16,10.16,0,0,1,1.11.25,8.61,8.61,0,0,1,.87.3v2.29a15.84,15.84,0,0,0-2.11-.53A12.7,12.7,0,0,0,377.76,291.31Z"></path><path class="cls-1" d="M395.2,309h-.07a4.54,4.54,0,0,1-.76.76,5.58,5.58,0,0,1-1.07.67,7.07,7.07,0,0,1-1.32.47,6.68,6.68,0,0,1-1.52.17,6.14,6.14,0,0,1-2-.32,4.44,4.44,0,0,1-1.58-1,4.28,4.28,0,0,1-1-1.53,5.35,5.35,0,0,1-.37-2.05,4.79,4.79,0,0,1,.41-2,4.26,4.26,0,0,1,1.13-1.51,5.07,5.07,0,0,1,1.76-1,7.36,7.36,0,0,1,2.27-.33,13.14,13.14,0,0,1,2.17.2,11.81,11.81,0,0,1,1.79.48h.06V301a7.18,7.18,0,0,0-.08-1.1,2.76,2.76,0,0,0-.27-.84,3.22,3.22,0,0,0-1.32-1.26,5,5,0,0,0-2.45-.5,10.52,10.52,0,0,0-2.15.21,12.58,12.58,0,0,0-2,.6v-2.07a6.48,6.48,0,0,1,.9-.36c.35-.11.71-.2,1.09-.28s.79-.14,1.21-.19.85-.06,1.27-.06A7.66,7.66,0,0,1,395,296a4.81,4.81,0,0,1,2.09,2.15,4.31,4.31,0,0,1,.34,1.12,8,8,0,0,1,.1,1.34v10.08h-2.06Zm-.13-5c-.45-.12-1-.25-1.61-.36a11.84,11.84,0,0,0-2.06-.19,4,4,0,0,0-2.46.67,2.38,2.38,0,0,0-.88,2,3.09,3.09,0,0,0,.22,1.22,2.4,2.4,0,0,0,.61.87,2.43,2.43,0,0,0,.92.51,3.77,3.77,0,0,0,1.13.16,4.36,4.36,0,0,0,1.47-.23,5.62,5.62,0,0,0,1.21-.55,6.37,6.37,0,0,0,.9-.63c.25-.21.43-.38.55-.49Z"></path><path class="cls-1" d="M415.7,303a11.15,11.15,0,0,1-.32,2.79,8.37,8.37,0,0,1-.82,2.12,5.93,5.93,0,0,1-1.2,1.52,6.13,6.13,0,0,1-1.42,1,6.27,6.27,0,0,1-2.92.71,5.92,5.92,0,0,1-2.41-.45,5.51,5.51,0,0,1-1.84-1.34h0v8.79h-2.41v-22.5h1.86l.52,1.71h.05a3.65,3.65,0,0,1,.53-.62,6.13,6.13,0,0,1,.88-.64,5.8,5.8,0,0,1,1.32-.6,5.27,5.27,0,0,1,1.67-.25,7.08,7.08,0,0,1,2.46.43,5.43,5.43,0,0,1,2.09,1.37,6.81,6.81,0,0,1,1.46,2.41A10.38,10.38,0,0,1,415.7,303Zm-2.58,0a9.07,9.07,0,0,0-.28-2.37,5.21,5.21,0,0,0-.84-1.79,3.81,3.81,0,0,0-1.38-1.14,4.3,4.3,0,0,0-1.88-.4,4.38,4.38,0,0,0-1.4.21,5.27,5.27,0,0,0-2,1.21,7.73,7.73,0,0,0-.59.65v7.91a6.15,6.15,0,0,0,1.79,1.25,5,5,0,0,0,2.15.46,4.49,4.49,0,0,0,1.48-.26,3.56,3.56,0,0,0,1.45-.94,5.21,5.21,0,0,0,1.1-1.83A8.82,8.82,0,0,0,413.12,303Z"></path><path class="cls-1" d="M428.43,309h-.06a5,5,0,0,1-.76.76,5.91,5.91,0,0,1-1.07.67,7.07,7.07,0,0,1-1.32.47,6.83,6.83,0,0,1-1.53.17,6.14,6.14,0,0,1-2-.32,4.32,4.32,0,0,1-2.6-2.49,5.55,5.55,0,0,1-.36-2.05,4.79,4.79,0,0,1,.4-2,4.17,4.17,0,0,1,1.14-1.51,5,5,0,0,1,1.76-1,7.34,7.34,0,0,1,2.26-.33,13.26,13.26,0,0,1,2.18.2,11.67,11.67,0,0,1,1.78.48h.06V301a7.27,7.27,0,0,0-.07-1.1,3.45,3.45,0,0,0-.27-.84,3.19,3.19,0,0,0-1.33-1.26,5,5,0,0,0-2.44-.5,10.55,10.55,0,0,0-2.16.21,12.78,12.78,0,0,0-2,.6v-2.07a5.61,5.61,0,0,1,.9-.36,10.82,10.82,0,0,1,1.09-.28c.38-.08.78-.14,1.21-.19s.84-.06,1.27-.06a7.65,7.65,0,0,1,3.74.81,4.81,4.81,0,0,1,2.09,2.15,4.32,4.32,0,0,1,.35,1.12,8,8,0,0,1,.1,1.34v10.08H428.7Zm-.13-5c-.45-.12-1-.25-1.61-.36a11.74,11.74,0,0,0-2.06-.19,4,4,0,0,0-2.45.67,2.39,2.39,0,0,0-.89,2,3.28,3.28,0,0,0,.22,1.22,2.4,2.4,0,0,0,.61.87,2.51,2.51,0,0,0,.92.51,3.77,3.77,0,0,0,1.13.16,4.46,4.46,0,0,0,1.48-.23,5.85,5.85,0,0,0,1.21-.55,7,7,0,0,0,.9-.63c.25-.21.43-.38.54-.49Z"></path><path class="cls-1" d="M442,295.17a9.59,9.59,0,0,1,2.1.23,6.3,6.3,0,0,1,1.72.64v2.06a13.72,13.72,0,0,0-1.85-.58,8.17,8.17,0,0,0-1.72-.19,5.84,5.84,0,0,0-1.83.3,4.43,4.43,0,0,0-1.62,1,5,5,0,0,0-1.15,1.83,8,8,0,0,0-.44,2.82,7.39,7.39,0,0,0,.33,2.26,5.16,5.16,0,0,0,1,1.79,4.44,4.44,0,0,0,1.61,1.17,5.63,5.63,0,0,0,2.24.43,9,9,0,0,0,1.86-.2,10.5,10.5,0,0,0,1.83-.57v2a3.58,3.58,0,0,1-.7.32,8,8,0,0,1-1,.28c-.35.08-.72.14-1.11.19a9.23,9.23,0,0,1-1.18.07,8.82,8.82,0,0,1-2.88-.46,6.57,6.57,0,0,1-2.38-1.41,6.84,6.84,0,0,1-1.61-2.42,9.34,9.34,0,0,1-.58-3.47,10.63,10.63,0,0,1,.31-2.69,7.75,7.75,0,0,1,.85-2.09,6.47,6.47,0,0,1,1.26-1.55,7.32,7.32,0,0,1,1.54-1,7,7,0,0,1,1.7-.59A8.4,8.4,0,0,1,442,295.17Z"></path><path class="cls-1" d="M449.92,292.05V289.3h2.46v2.75Zm.06,18.62v-15.1h2.46v15.1Z"></path><path class="cls-1" d="M456.5,303.31a11.17,11.17,0,0,1,.31-2.79,8.76,8.76,0,0,1,.82-2.12,6,6,0,0,1,1.19-1.52,6.75,6.75,0,0,1,1.42-1,5.66,5.66,0,0,1,1.48-.55,6.78,6.78,0,0,1,1.43-.17,5.74,5.74,0,0,1,2.4.46,5.65,5.65,0,0,1,1.83,1.35h0v-9.33h2.47v23H468l-.51-1.68h-.06a8.79,8.79,0,0,1-.67.74,4.79,4.79,0,0,1-.9.67,4.43,4.43,0,0,1-1.19.49,6.16,6.16,0,0,1-1.57.18,7.22,7.22,0,0,1-2.43-.42,5.56,5.56,0,0,1-2.12-1.35,6.85,6.85,0,0,1-1.51-2.4A10,10,0,0,1,456.5,303.31Zm2.58,0a8.62,8.62,0,0,0,.29,2.36,5.37,5.37,0,0,0,.85,1.8,3.86,3.86,0,0,0,1.37,1.14,4.24,4.24,0,0,0,1.86.39,4.75,4.75,0,0,0,1.41-.2,5,5,0,0,0,1.14-.53,5.13,5.13,0,0,0,.86-.67,4.28,4.28,0,0,0,.56-.66V299a6,6,0,0,0-1.76-1.25,5.08,5.08,0,0,0-2.16-.47,4.41,4.41,0,0,0-1.47.27,3.59,3.59,0,0,0-1.44.94,5.33,5.33,0,0,0-1.08,1.84A8.48,8.48,0,0,0,459.08,303.28Z"></path><path class="cls-1" d="M483.66,309h-.06a4.63,4.63,0,0,1-.77.76,5.49,5.49,0,0,1-1.06.67,7.07,7.07,0,0,1-1.32.47,6.83,6.83,0,0,1-1.53.17,6.14,6.14,0,0,1-2-.32,4.4,4.4,0,0,1-1.57-1,4.31,4.31,0,0,1-1-1.53,5.55,5.55,0,0,1-.36-2.05,4.79,4.79,0,0,1,.4-2,4.17,4.17,0,0,1,1.14-1.51,5,5,0,0,1,1.76-1,7.3,7.3,0,0,1,2.26-.33,13.26,13.26,0,0,1,2.18.2,11.67,11.67,0,0,1,1.78.48h.06V301a7.27,7.27,0,0,0-.07-1.1,2.82,2.82,0,0,0-1.6-2.1,5,5,0,0,0-2.44-.5,10.55,10.55,0,0,0-2.16.21,12.78,12.78,0,0,0-2,.6v-2.07a5.61,5.61,0,0,1,.9-.36,10.82,10.82,0,0,1,1.09-.28c.38-.08.78-.14,1.21-.19s.84-.06,1.27-.06a7.65,7.65,0,0,1,3.74.81,4.81,4.81,0,0,1,2.09,2.15,4.32,4.32,0,0,1,.35,1.12,9.25,9.25,0,0,1,.1,1.34v10.08h-2.07Zm-.13-5c-.45-.12-1-.25-1.61-.36a11.74,11.74,0,0,0-2.06-.19,4,4,0,0,0-2.45.67,2.39,2.39,0,0,0-.89,2,3.28,3.28,0,0,0,.22,1.22,2.4,2.4,0,0,0,.61.87,2.51,2.51,0,0,0,.92.51,3.77,3.77,0,0,0,1.13.16,4.36,4.36,0,0,0,1.47-.23,5.7,5.7,0,0,0,1.22-.55,7,7,0,0,0,.9-.63c.25-.21.43-.38.54-.49Z"></path><path class="cls-1" d="M489.9,303.31a11.17,11.17,0,0,1,.31-2.79,8.76,8.76,0,0,1,.81-2.12,5.77,5.77,0,0,1,1.2-1.52,6.45,6.45,0,0,1,1.41-1,5.86,5.86,0,0,1,1.49-.55,6.69,6.69,0,0,1,1.42-.17,5.71,5.71,0,0,1,2.4.46,5.65,5.65,0,0,1,1.83,1.35h.05v-9.33h2.47v23h-1.87l-.5-1.68h-.07a7.35,7.35,0,0,1-.67.74,4.41,4.41,0,0,1-.89.67,4.64,4.64,0,0,1-1.2.49,6.08,6.08,0,0,1-1.56.18,7.32,7.32,0,0,1-2.44-.42A5.64,5.64,0,0,1,492,309.3a6.83,6.83,0,0,1-1.5-2.4A10,10,0,0,1,489.9,303.31Zm2.57,0a8.61,8.61,0,0,0,.3,2.36,5.18,5.18,0,0,0,.85,1.8,3.83,3.83,0,0,0,1.36,1.14,4.3,4.3,0,0,0,1.86.39,4.82,4.82,0,0,0,1.42-.2,5.43,5.43,0,0,0,1.14-.53,5.58,5.58,0,0,0,.86-.67,5.82,5.82,0,0,0,.56-.66V299a6.26,6.26,0,0,0-1.76-1.25,5.1,5.1,0,0,0-2.17-.47,4.5,4.5,0,0,0-1.47.27,3.63,3.63,0,0,0-1.43.94,5.34,5.34,0,0,0-1.09,1.84A8.72,8.72,0,0,0,492.47,303.28Z"></path><path class="cls-1" d="M515.39,308.93a11.77,11.77,0,0,0,2.23-.2,13.77,13.77,0,0,0,2-.57v2a7.73,7.73,0,0,1-2,.63,13.85,13.85,0,0,1-2.56.23,11.13,11.13,0,0,1-3.05-.41,6.26,6.26,0,0,1-2.46-1.34,6.12,6.12,0,0,1-1.63-2.41,9.76,9.76,0,0,1-.59-3.58,10.21,10.21,0,0,1,.57-3.59,7.67,7.67,0,0,1,1.52-2.54,6.41,6.41,0,0,1,2.19-1.52,6.76,6.76,0,0,1,2.59-.51,6.64,6.64,0,0,1,2.37.42,4.86,4.86,0,0,1,1.91,1.33,6.38,6.38,0,0,1,1.28,2.34,11.15,11.15,0,0,1,.47,3.43V303c0,.09,0,.29,0,.61H509.79a6.08,6.08,0,0,0,.44,2.46,4.26,4.26,0,0,0,1.19,1.63,4.67,4.67,0,0,0,1.77.92A8.13,8.13,0,0,0,515.39,308.93Zm-1.3-11.65a3.84,3.84,0,0,0-1.59.34,3.88,3.88,0,0,0-1.28.91,4.82,4.82,0,0,0-.89,1.34,5.27,5.27,0,0,0-.41,1.64h7.72a5.6,5.6,0,0,0-.23-1.66,3.94,3.94,0,0,0-.68-1.34,3.24,3.24,0,0,0-1.11-.9A3.38,3.38,0,0,0,514.09,297.28Z"></path><path class="cls-1" d="M526.18,299.59a1.8,1.8,0,0,0,.27,1,1.92,1.92,0,0,0,.71.64,4.34,4.34,0,0,0,1,.41c.39.1.79.2,1.21.28.57.13,1.11.27,1.61.43a4.63,4.63,0,0,1,1.41.69,3.22,3.22,0,0,1,1,1.25,5.08,5.08,0,0,1-.05,4.07,4.13,4.13,0,0,1-1.25,1.48,5.89,5.89,0,0,1-1.94.9,9.26,9.26,0,0,1-2.48.31,13.64,13.64,0,0,1-1.51-.08,9.7,9.7,0,0,1-1.19-.23,7.1,7.1,0,0,1-.88-.28,4,4,0,0,1-.61-.27v-2.06a14.31,14.31,0,0,0,1.86.6,8.59,8.59,0,0,0,2,.22,7,7,0,0,0,1.58-.16,3.77,3.77,0,0,0,1.21-.47,2.13,2.13,0,0,0,.78-.77,2.18,2.18,0,0,0,.27-1.09,1.94,1.94,0,0,0-.25-1.05,2,2,0,0,0-.67-.69,3.76,3.76,0,0,0-1-.44c-.37-.12-.76-.23-1.17-.32s-1.07-.25-1.61-.41a5.78,5.78,0,0,1-1.49-.67,3.32,3.32,0,0,1-1.09-1.17,3.93,3.93,0,0,1-.41-1.9,4.61,4.61,0,0,1,.43-2.07,4,4,0,0,1,1.16-1.44,4.87,4.87,0,0,1,1.7-.86,7.25,7.25,0,0,1,2.05-.29,10.69,10.69,0,0,1,2.33.24,11.8,11.8,0,0,1,2,.6v2.1a14.24,14.24,0,0,0-1.89-.59,8.49,8.49,0,0,0-2-.25,5.63,5.63,0,0,0-1.46.17,2.87,2.87,0,0,0-1,.49,1.89,1.89,0,0,0-.57.73A2.34,2.34,0,0,0,526.18,299.59Z"></path><path class="cls-1" d="M561.66,299.94a12.76,12.76,0,0,1-.46,3.5,9.65,9.65,0,0,1-1.39,2.95,9.28,9.28,0,0,1-2.32,2.27,11.14,11.14,0,0,1-3.25,1.47,12.31,12.31,0,0,1-2.31.43c-.83.07-1.72.11-2.69.11h-4.82V289.4h4.87c1,0,1.86,0,2.69.12a13.24,13.24,0,0,1,2.3.42,11.45,11.45,0,0,1,3.26,1.46,8.94,8.94,0,0,1,3.67,5.1A12.61,12.61,0,0,1,561.66,299.94Zm-2.57,0a8.45,8.45,0,0,0-1.36-5,7.23,7.23,0,0,0-3.88-2.7,10.49,10.49,0,0,0-2.16-.41c-.8-.08-1.69-.11-2.69-.11h-2v16.6h2c1,0,1.89,0,2.69-.11a11.18,11.18,0,0,0,2.16-.42,7.09,7.09,0,0,0,3.88-2.78A8.88,8.88,0,0,0,559.09,299.94Z"></path><path class="cls-1" d="M566.05,292.05V289.3h2.47v2.75Zm.06,18.62v-15.1h2.47v15.1Z"></path><path class="cls-1" d="M582.27,289.59a7.86,7.86,0,0,0-1-.14,9.28,9.28,0,0,0-1-.05,5.22,5.22,0,0,0-1.49.2,2.7,2.7,0,0,0-1.11.66,3.1,3.1,0,0,0-.68,1.2,5.83,5.83,0,0,0-.24,1.79v2.32h4.5v2.11h-4.5v13h-2.46v-13H571.6v-2.11h2.66v-2.31a7.69,7.69,0,0,1,.43-2.76,5.16,5.16,0,0,1,1.2-1.84,4.82,4.82,0,0,1,1.8-1.07,7,7,0,0,1,2.23-.34,12.2,12.2,0,0,1,1.41.08,6,6,0,0,1,.94.17Z"></path><path class="cls-1" d="M591,308.93a11.88,11.88,0,0,0,2.24-.2,13.77,13.77,0,0,0,2-.57v2a7.73,7.73,0,0,1-2,.63,13.85,13.85,0,0,1-2.56.23,11.08,11.08,0,0,1-3.05-.41,6.26,6.26,0,0,1-2.46-1.34,6,6,0,0,1-1.63-2.41,9.55,9.55,0,0,1-.59-3.58,10.21,10.21,0,0,1,.57-3.59,7.67,7.67,0,0,1,1.52-2.54,6.41,6.41,0,0,1,2.19-1.52,6.72,6.72,0,0,1,2.59-.51,6.64,6.64,0,0,1,2.37.42,4.93,4.93,0,0,1,1.91,1.33,6.53,6.53,0,0,1,1.28,2.34,11.17,11.17,0,0,1,.46,3.43V303c0,.09,0,.29,0,.61H585.44a6.26,6.26,0,0,0,.43,2.46,4.28,4.28,0,0,0,1.2,1.63,4.67,4.67,0,0,0,1.77.92A8.11,8.11,0,0,0,591,308.93Zm-1.3-11.65a3.83,3.83,0,0,0-1.58.34,3.88,3.88,0,0,0-1.28.91,4.61,4.61,0,0,0-.89,1.34,5.57,5.57,0,0,0-.42,1.64h7.73a5.94,5.94,0,0,0-.23-1.66,4.15,4.15,0,0,0-.69-1.34,3.24,3.24,0,0,0-1.11-.9A3.38,3.38,0,0,0,589.73,297.28Z"></path><path class="cls-1" d="M608.35,297.57h-.19a9,9,0,0,0-1.72.16,7.85,7.85,0,0,0-1.58.48,6.21,6.21,0,0,0-1.34.81,4.47,4.47,0,0,0-1,1.13v10.52h-2.46v-15.1H602l.48,2.4h0a5.43,5.43,0,0,1,.9-1.1,6,6,0,0,1,1.2-.89,6.18,6.18,0,0,1,3.13-.81h.33l.29,0Z"></path><path class="cls-1" d="M618.15,308.93a11.77,11.77,0,0,0,2.23-.2,13.42,13.42,0,0,0,2-.57v2a7.73,7.73,0,0,1-2,.63,13.85,13.85,0,0,1-2.56.23,11.13,11.13,0,0,1-3.05-.41,6.26,6.26,0,0,1-2.46-1.34,6.12,6.12,0,0,1-1.63-2.41,9.76,9.76,0,0,1-.59-3.58,10.21,10.21,0,0,1,.57-3.59,7.67,7.67,0,0,1,1.52-2.54,6.41,6.41,0,0,1,2.19-1.52,6.76,6.76,0,0,1,2.59-.51,6.56,6.56,0,0,1,2.37.42,4.86,4.86,0,0,1,1.91,1.33,6.38,6.38,0,0,1,1.28,2.34,11.15,11.15,0,0,1,.47,3.43V303c0,.09,0,.29,0,.61H612.55a6.25,6.25,0,0,0,.44,2.46,4.26,4.26,0,0,0,1.19,1.63,4.67,4.67,0,0,0,1.77.92A8.13,8.13,0,0,0,618.15,308.93Zm-1.3-11.65a3.84,3.84,0,0,0-1.59.34,4,4,0,0,0-1.28.91,4.58,4.58,0,0,0-.88,1.34,5,5,0,0,0-.42,1.64h7.73a5.6,5.6,0,0,0-.24-1.66,3.94,3.94,0,0,0-.68-1.34,3.24,3.24,0,0,0-1.11-.9A3.38,3.38,0,0,0,616.85,297.28Z"></path><path class="cls-1" d="M629.57,297.67h0a7.74,7.74,0,0,1,.92-1,6.12,6.12,0,0,1,1.12-.8,6.08,6.08,0,0,1,3-.72,6.41,6.41,0,0,1,1.94.29,3.92,3.92,0,0,1,1.58.92,4.46,4.46,0,0,1,1.05,1.66,7.1,7.1,0,0,1,.39,2.52v10.11h-2.46V301a4.21,4.21,0,0,0-.76-2.82,2.77,2.77,0,0,0-2.2-.86,4.75,4.75,0,0,0-2.46.71,6.44,6.44,0,0,0-2.05,1.95v10.73h-2.47v-15.1h1.91Z"></path><path class="cls-1" d="M652.32,310.71a5.87,5.87,0,0,1-1,.24,11,11,0,0,1-1.56.12,6.65,6.65,0,0,1-2.06-.29,4,4,0,0,1-1.46-.84,3.42,3.42,0,0,1-.87-1.33,5,5,0,0,1-.28-1.74v-9.19h-2.91v-2.11h2.91v-4.14h2.46v4.14h4.52v2.11h-4.52v8.81a3,3,0,0,0,.15,1,1.86,1.86,0,0,0,.48.77,2.24,2.24,0,0,0,.83.51,3.7,3.7,0,0,0,1.23.19,7.63,7.63,0,0,0,1-.08c.37-.06.7-.13,1-.21Z"></path><path class="cls-1" d="M662.83,308.93a11.88,11.88,0,0,0,2.24-.2,13.77,13.77,0,0,0,2-.57v2a7.73,7.73,0,0,1-2,.63,13.88,13.88,0,0,1-2.57.23,11.06,11.06,0,0,1-3-.41,6.37,6.37,0,0,1-2.47-1.34,6.23,6.23,0,0,1-1.63-2.41,9.77,9.77,0,0,1-.58-3.58,10.21,10.21,0,0,1,.57-3.59,7.67,7.67,0,0,1,1.52-2.54,6.22,6.22,0,0,1,2.19-1.52,6.72,6.72,0,0,1,2.59-.51,6.64,6.64,0,0,1,2.37.42,4.93,4.93,0,0,1,1.91,1.33,6.37,6.37,0,0,1,1.27,2.34,10.85,10.85,0,0,1,.47,3.43V303c0,.09,0,.29,0,.61H657.24a6.26,6.26,0,0,0,.43,2.46,4.18,4.18,0,0,0,1.2,1.63,4.67,4.67,0,0,0,1.77.92A8.11,8.11,0,0,0,662.83,308.93Zm-1.3-11.65a3.76,3.76,0,0,0-1.58.34,3.88,3.88,0,0,0-1.28.91,4.61,4.61,0,0,0-.89,1.34,5.57,5.57,0,0,0-.42,1.64h7.73a5.94,5.94,0,0,0-.23-1.66,4.15,4.15,0,0,0-.69-1.34,3.24,3.24,0,0,0-1.11-.9A3.38,3.38,0,0,0,661.53,297.28Z"></path><path class="cls-1" d="M673.63,299.59a1.8,1.8,0,0,0,.27,1,2,2,0,0,0,.7.64,4.61,4.61,0,0,0,1,.41c.39.1.79.2,1.2.28.57.13,1.11.27,1.62.43a4.63,4.63,0,0,1,1.41.69,3.31,3.31,0,0,1,1,1.25,4.57,4.57,0,0,1,.4,2,4.43,4.43,0,0,1-.45,2,4.26,4.26,0,0,1-1.26,1.48,5.79,5.79,0,0,1-1.94.9,9.2,9.2,0,0,1-2.48.31,13.59,13.59,0,0,1-1.5-.08,9.7,9.7,0,0,1-1.19-.23,6.59,6.59,0,0,1-.88-.28,4,4,0,0,1-.61-.27v-2.06a13.84,13.84,0,0,0,1.86.6,8.54,8.54,0,0,0,2,.22,7,7,0,0,0,1.58-.16,3.87,3.87,0,0,0,1.21-.47,2.3,2.3,0,0,0,.78-.77,2.18,2.18,0,0,0,.27-1.09,1.94,1.94,0,0,0-.25-1.05,2.1,2.1,0,0,0-.67-.69,3.83,3.83,0,0,0-1-.44c-.37-.12-.75-.23-1.16-.32s-1.07-.25-1.62-.41a6.1,6.1,0,0,1-1.49-.67,3.29,3.29,0,0,1-1.08-1.17,3.82,3.82,0,0,1-.42-1.9,4.75,4.75,0,0,1,.43-2.07,4.13,4.13,0,0,1,1.17-1.44,4.79,4.79,0,0,1,1.7-.86,7.2,7.2,0,0,1,2-.29,10.69,10.69,0,0,1,2.33.24,12.42,12.42,0,0,1,1.95.6v2.1a14.72,14.72,0,0,0-1.89-.59,8.56,8.56,0,0,0-2-.25,5.58,5.58,0,0,0-1.46.17,2.7,2.7,0,0,0-1,.49,1.89,1.89,0,0,0-.57.73A2.34,2.34,0,0,0,673.63,299.59Z"></path></svg> 